<svg width="309" height="191" viewBox="0 0 309 191" fill="none" xmlns="http://www.w3.org/2000/svg">
<g filter="url(#filter0_i_152_3952)">
<path d="M75.0586 92.7148C75.0586 112.402 70.9115 127.1 62.6172 136.807C54.3229 146.514 41.7676 151.367 24.9512 151.367C19.0267 151.367 14.5378 151.048 11.4844 150.41V133.457C15.3125 134.414 19.3229 134.893 23.5156 134.893C30.5794 134.893 36.39 133.867 40.9473 131.816C45.5046 129.72 48.9909 126.462 51.4062 122.041C53.8216 117.575 55.2116 111.445 55.5762 103.652H54.7559C52.1126 107.936 49.0592 110.944 45.5957 112.676C42.1322 114.408 37.8027 115.273 32.6074 115.273C23.903 115.273 17.0443 112.493 12.0312 106.934C7.01823 101.328 4.51172 93.5579 4.51172 83.623C4.51172 72.9134 7.54232 64.4596 13.6035 58.2617C19.7103 52.0182 28.0046 48.8965 38.4863 48.8965C45.8691 48.8965 52.3177 50.6283 57.832 54.0918C63.3919 57.5553 67.653 62.5911 70.6152 69.1992C73.5775 75.7617 75.0586 83.6003 75.0586 92.7148ZM38.8965 65.8496C34.5215 65.8496 31.1035 67.3535 28.6426 70.3613C26.1816 73.3691 24.9512 77.6986 24.9512 83.3496C24.9512 88.1803 26.0677 92.0085 28.3008 94.834C30.5339 97.6595 33.929 99.0723 38.4863 99.0723C42.7702 99.0723 46.4388 97.6823 49.4922 94.9023C52.5456 92.0768 54.0723 88.8411 54.0723 85.1953C54.0723 79.7721 52.6367 75.1921 49.7656 71.4551C46.9401 67.7181 43.3171 65.8496 38.8965 65.8496ZM153.74 150L146.494 126.211H110.059L102.812 150H79.9805L115.254 49.6484H141.162L176.572 150H153.74ZM141.436 108.438C134.736 86.8815 130.954 74.6908 130.088 71.8652C129.268 69.0397 128.675 66.8066 128.311 65.166C126.807 70.9993 122.5 85.4232 115.391 108.438H141.436ZM231.533 150L207.471 71.5918H206.855C207.721 87.5423 208.154 98.1836 208.154 103.516V150H189.219V50.0586H218.066L241.719 126.484H242.129L267.217 50.0586H296.064V150H276.309V102.695C276.309 100.462 276.331 97.8874 276.377 94.9707C276.468 92.054 276.787 84.3066 277.334 71.7285H276.719L250.947 150H231.533Z" fill="white"/>
</g>
<defs>
<filter id="filter0_i_152_3952" x="4.51172" y="48.8965" width="291.553" height="106.471" filterUnits="userSpaceOnUse" color-interpolation-filters="sRGB">
<feFlood flood-opacity="0" result="BackgroundImageFix"/>
<feBlend mode="normal" in="SourceGraphic" in2="BackgroundImageFix" result="shape"/>
<feColorMatrix in="SourceAlpha" type="matrix" values="0 0 0 0 0 0 0 0 0 0 0 0 0 0 0 0 0 0 127 0" result="hardAlpha"/>
<feOffset dy="4"/>
<feGaussianBlur stdDeviation="2"/>
<feComposite in2="hardAlpha" operator="arithmetic" k2="-1" k3="1"/>
<feColorMatrix type="matrix" values="0 0 0 0 0 0 0 0 0 0 0 0 0 0 0 0 0 0 0.25 0"/>
<feBlend mode="normal" in2="shape" result="effect1_innerShadow_152_3952"/>
</filter>
</defs>
</svg>
