<svg width="293" height="104" viewBox="0 0 293 104" fill="none" xmlns="http://www.w3.org/2000/svg">
<g filter="url(#filter0_i_152_3953)">
<path d="M71.0586 44.7148C71.0586 64.4023 66.9115 79.0996 58.6172 88.8066C50.3229 98.5137 37.7676 103.367 20.9512 103.367C15.0267 103.367 10.5378 103.048 7.48438 102.41V85.457C11.3125 86.4141 15.3229 86.8926 19.5156 86.8926C26.5794 86.8926 32.39 85.8672 36.9473 83.8164C41.5046 81.7201 44.9909 78.4616 47.4062 74.041C49.8216 69.5749 51.2116 63.4453 51.5762 55.6523H50.7559C48.1126 59.9362 45.0592 62.944 41.5957 64.6758C38.1322 66.4076 33.8027 67.2734 28.6074 67.2734C19.903 67.2734 13.0443 64.4935 8.03125 58.9336C3.01823 53.3281 0.511719 45.5579 0.511719 35.623C0.511719 24.9134 3.54232 16.4596 9.60352 10.2617C15.7103 4.01823 24.0046 0.896484 34.4863 0.896484C41.8691 0.896484 48.3177 2.62826 53.832 6.0918C59.3919 9.55534 63.653 14.5911 66.6152 21.1992C69.5775 27.7617 71.0586 35.6003 71.0586 44.7148ZM34.8965 17.8496C30.5215 17.8496 27.1035 19.3535 24.6426 22.3613C22.1816 25.3691 20.9512 29.6986 20.9512 35.3496C20.9512 40.1803 22.0677 44.0085 24.3008 46.834C26.5339 49.6595 29.929 51.0723 34.4863 51.0723C38.7702 51.0723 42.4388 49.6823 45.4922 46.9023C48.5456 44.0768 50.0723 40.8411 50.0723 37.1953C50.0723 31.7721 48.6367 27.1921 45.7656 23.4551C42.9401 19.7181 39.3171 17.8496 34.8965 17.8496ZM149.74 102L142.494 78.2109H106.059L98.8125 102H75.9805L111.254 1.64844H137.162L172.572 102H149.74ZM137.436 60.4375C130.736 38.8815 126.954 26.6908 126.088 23.8652C125.268 21.0397 124.675 18.8066 124.311 17.166C122.807 22.9993 118.5 37.4232 111.391 60.4375H137.436ZM227.533 102L203.471 23.5918H202.855C203.721 39.5423 204.154 50.1836 204.154 55.5156V102H185.219V2.05859H214.066L237.719 78.4844H238.129L263.217 2.05859H292.064V102H272.309V54.6953C272.309 52.4622 272.331 49.8874 272.377 46.9707C272.468 44.054 272.787 36.3066 273.334 23.7285H272.719L246.947 102H227.533Z" fill="#FF8A08"/>
</g>
<defs>
<filter id="filter0_i_152_3953" x="0.511719" y="0.896484" width="291.553" height="106.471" filterUnits="userSpaceOnUse" color-interpolation-filters="sRGB">
<feFlood flood-opacity="0" result="BackgroundImageFix"/>
<feBlend mode="normal" in="SourceGraphic" in2="BackgroundImageFix" result="shape"/>
<feColorMatrix in="SourceAlpha" type="matrix" values="0 0 0 0 0 0 0 0 0 0 0 0 0 0 0 0 0 0 127 0" result="hardAlpha"/>
<feOffset dy="4"/>
<feGaussianBlur stdDeviation="2"/>
<feComposite in2="hardAlpha" operator="arithmetic" k2="-1" k3="1"/>
<feColorMatrix type="matrix" values="0 0 0 0 0 0 0 0 0 0 0 0 0 0 0 0 0 0 0.25 0"/>
<feBlend mode="normal" in2="shape" result="effect1_innerShadow_152_3953"/>
</filter>
</defs>
</svg>
